<svg width="13" height="15" viewBox="0 0 13 15" fill="none" xmlns="http://www.w3.org/2000/svg">
<path opacity="0.5" d="M6.35 8.73864L1.275 14.2173C1.14167 14.3613 0.971 14.4376 0.763 14.4462C0.554333 14.4556 0.375 14.3793 0.225 14.2173C0.0749999 14.0554 0 13.8665 0 13.6506C0 13.4347 0.0749999 13.2457 0.225 13.0838L5.3 7.60512L0.225 2.12642C0.0916666 1.98248 0.021 1.79788 0.013 1.57261C0.00433335 1.34807 0.0749999 1.15483 0.225 0.992898C0.375 0.830966 0.55 0.75 0.75 0.75C0.95 0.75 1.125 0.830966 1.275 0.992898L6.35 6.47159L11.425 0.992898C11.5583 0.848958 11.7293 0.772311 11.938 0.762955C12.146 0.754318 12.325 0.830966 12.475 0.992898C12.625 1.15483 12.7 1.34375 12.7 1.55966C12.7 1.77557 12.625 1.96449 12.475 2.12642L7.4 7.60512L12.475 13.0838C12.6083 13.2278 12.679 13.412 12.687 13.6365C12.6957 13.8618 12.625 14.0554 12.475 14.2173C12.325 14.3793 12.15 14.4602 11.95 14.4602C11.75 14.4602 11.575 14.3793 11.425 14.2173L6.35 8.73864Z" fill="#16103E"/>
</svg>
