<svg width="30" height="30" viewBox="0 0 30 30" fill="none" xmlns="http://www.w3.org/2000/svg">
<g opacity="0.7">
<circle cx="15" cy="15" r="15" fill="#16103E" fill-opacity="0.1"/>
<path d="M20.3359 12.3327L15.0026 15.666L9.66927 12.3327V10.9993L15.0026 14.3327L20.3359 10.9993V12.3327ZM20.3359 9.66602H9.66927C8.92927 9.66602 8.33594 10.2593 8.33594 10.9993V18.9993C8.33594 19.353 8.47641 19.6921 8.72646 19.9422C8.97651 20.1922 9.31565 20.3327 9.66927 20.3327H20.3359C20.6896 20.3327 21.0287 20.1922 21.2787 19.9422C21.5288 19.6921 21.6693 19.353 21.6693 18.9993V10.9993C21.6693 10.6457 21.5288 10.3066 21.2787 10.0565C21.0287 9.80649 20.6896 9.66602 20.3359 9.66602Z" fill="#16103E"/>
</g>
</svg>
