<svg width="31" height="30" viewBox="0 0 31 30" fill="none" xmlns="http://www.w3.org/2000/svg">
<g opacity="0.5">
<path d="M15.4008 11.0946C13.2504 11.0946 11.4955 12.8495 11.4955 14.9999C11.4955 17.1503 13.2504 18.9052 15.4008 18.9052C17.5512 18.9052 19.306 17.1503 19.306 14.9999C19.306 12.8495 17.5512 11.0946 15.4008 11.0946ZM27.1137 14.9999C27.1137 13.3827 27.1283 11.7802 27.0375 10.1659C26.9467 8.29091 26.5189 6.62685 25.1478 5.25575C23.7738 3.88173 22.1127 3.45693 20.2377 3.36611C18.6205 3.27529 17.018 3.28993 15.4037 3.28993C13.7865 3.28993 12.184 3.27529 10.5697 3.36611C8.69472 3.45693 7.03066 3.88466 5.65956 5.25575C4.28554 6.62978 3.86073 8.29091 3.76991 10.1659C3.67909 11.7831 3.69374 13.3856 3.69374 14.9999C3.69374 16.6142 3.67909 18.2196 3.76991 19.8339C3.86073 21.7089 4.28847 23.3729 5.65956 24.744C7.03359 26.1181 8.69472 26.5429 10.5697 26.6337C12.1869 26.7245 13.7894 26.7099 15.4037 26.7099C17.0209 26.7099 18.6234 26.7245 20.2377 26.6337C22.1127 26.5429 23.7767 26.1151 25.1478 24.744C26.5219 23.37 26.9467 21.7089 27.0375 19.8339C27.1312 18.2196 27.1137 16.6171 27.1137 14.9999ZM15.4008 21.0087C12.0756 21.0087 9.39198 18.3251 9.39198 14.9999C9.39198 11.6747 12.0756 8.99111 15.4008 8.99111C18.726 8.99111 21.4096 11.6747 21.4096 14.9999C21.4096 18.3251 18.726 21.0087 15.4008 21.0087ZM21.6557 10.1483C20.8793 10.1483 20.2523 9.52138 20.2523 8.74501C20.2523 7.96865 20.8793 7.34169 21.6557 7.34169C22.432 7.34169 23.059 7.96865 23.059 8.74501C23.0592 8.92936 23.0231 9.11195 22.9526 9.28231C22.8822 9.45268 22.7788 9.60747 22.6485 9.73783C22.5181 9.86818 22.3633 9.97154 22.193 10.042C22.0226 10.1124 21.84 10.1486 21.6557 10.1483Z" fill="#16103E"/>
</g>
</svg>
