<svg width="20" height="20" viewBox="0 0 20 20" fill="none" xmlns="http://www.w3.org/2000/svg">
<g clip-path="url(#clip0_12_5325)">
<mask id="mask0_12_5325" style="mask-type:luminance" maskUnits="userSpaceOnUse" x="1" y="1" width="18" height="19">
<rect x="1.225" y="1.54336" width="17.55" height="17.55" rx="1.57499" fill="white" stroke="white" stroke-width="0.449997"/>
</mask>
<g mask="url(#mask0_12_5325)">
<path fill-rule="evenodd" clip-rule="evenodd" d="M10.0832 13.6938C11.9975 13.6938 13.5493 12.142 13.5493 10.2278C13.5493 8.31352 11.9975 6.76172 10.0832 6.76172C8.16899 6.76172 6.61719 8.31352 6.61719 10.2278C6.61719 12.142 8.16899 13.6938 10.0832 13.6938Z" fill="#E01B41"/>
<mask id="mask1_12_5325" style="mask-type:luminance" maskUnits="userSpaceOnUse" x="6" y="6" width="8" height="8">
<path fill-rule="evenodd" clip-rule="evenodd" d="M10.0832 13.6938C11.9975 13.6938 13.5493 12.142 13.5493 10.2278C13.5493 8.31352 11.9975 6.76172 10.0832 6.76172C8.16899 6.76172 6.61719 8.31352 6.61719 10.2278C6.61719 12.142 8.16899 13.6938 10.0832 13.6938Z" fill="white"/>
</mask>
<g mask="url(#mask1_12_5325)">
<path fill-rule="evenodd" clip-rule="evenodd" d="M6.61567 10.723C7.60597 11.6514 9.09142 12.2084 10.0817 10.723C11.072 9.23752 13.0526 9.23752 13.5478 10.723C14.0429 12.2084 13.5478 13.6939 13.5478 13.6939H6.61567C6.61567 13.6939 5.62537 9.79457 6.61567 10.723Z" fill="#0E4B9C"/>
</g>
<path opacity="0.75" fill-rule="evenodd" clip-rule="evenodd" d="M4.27072 5.44219C4.33909 5.32378 4.4905 5.2832 4.60891 5.35157L5.03773 5.59914C5.15614 5.66751 5.19671 5.81893 5.12835 5.93734L3.89047 8.0814C3.8221 8.19982 3.67069 8.24039 3.55228 8.17202L3.12346 7.92445C3.00505 7.85608 2.96448 7.70467 3.03284 7.58625L4.27072 5.44219ZM15.1284 5.5996C15.01 5.66797 14.9695 5.81938 15.0378 5.93779L16.2757 8.08186C16.3441 8.20027 16.4955 8.24084 16.6139 8.17248L17.0427 7.9249C17.1611 7.85654 17.2017 7.70512 17.1333 7.58671L15.8955 5.44264C15.8271 5.32423 15.6757 5.28366 15.5573 5.35202L15.1284 5.5996ZM13.8433 6.34228C13.7249 6.41064 13.6843 6.56206 13.7527 6.68047L14.9905 8.82453C15.0589 8.94295 15.2103 8.98352 15.3287 8.91515L15.7576 8.66758C15.876 8.59921 15.9165 8.4478 15.8482 8.32938L14.6103 6.18532C14.5419 6.06691 14.3905 6.02633 14.2721 6.0947L13.8433 6.34228ZM3.03392 12.8699C2.96555 12.7515 3.00613 12.6001 3.12454 12.5317L3.55335 12.2842C3.67177 12.2158 3.82318 12.2564 3.89155 12.3748L5.12942 14.5188C5.19779 14.6372 5.15722 14.7887 5.0388 14.857L4.60999 15.1046C4.49158 15.173 4.34016 15.1324 4.2718 15.014L3.03392 12.8699ZM4.4097 11.7891C4.29128 11.8574 4.25071 12.0088 4.31908 12.1272L5.55695 14.2713C5.62532 14.3897 5.77673 14.4303 5.89515 14.3619L6.32396 14.1144C6.44237 14.046 6.48295 13.8946 6.41458 13.7762L5.1767 11.6321C5.10834 11.5137 4.95692 11.4731 4.83851 11.5415L4.4097 11.7891ZM14.9895 11.6321C15.0578 11.5137 15.2093 11.4731 15.3277 11.5415L15.7565 11.7891C15.8749 11.8575 15.9155 12.0089 15.8471 12.1273L14.6092 14.2713C14.5409 14.3898 14.3894 14.4303 14.271 14.362L13.8422 14.1144C13.7238 14.046 13.6832 13.8946 13.7516 13.7762L14.9895 11.6321ZM16.6167 12.2842C16.4983 12.2158 16.3469 12.2564 16.2785 12.3748L15.0407 14.5189C14.9723 14.6373 15.0129 14.7887 15.1313 14.8571L15.5601 15.1046C15.6785 15.173 15.8299 15.1324 15.8983 15.014L17.1362 12.87C17.2045 12.7515 17.164 12.6001 17.0455 12.5318L16.6167 12.2842ZM5.89407 6.09425C5.77566 6.02588 5.62424 6.06645 5.55588 6.18486L4.318 8.32893C4.24963 8.44734 4.29021 8.59876 4.40862 8.66712L4.83743 8.9147C4.95585 8.98306 5.10726 8.94249 5.17563 8.82408L6.4135 6.68001C6.48187 6.5616 6.4413 6.41019 6.32288 6.34182L5.89407 6.09425Z" fill="#262626"/>
</g>
</g>
<rect x="0.75" y="1.06836" width="18.5" height="18.5" rx="9.25" stroke="#F3F3F3" stroke-width="0.5"/>
<defs>
<clipPath id="clip0_12_5325">
<rect x="1" y="1.31836" width="18" height="18" rx="9" fill="white"/>
</clipPath>
</defs>
</svg>
