<svg width="80" height="31" viewBox="0 0 80 31" fill="none" xmlns="http://www.w3.org/2000/svg">
<g opacity="0.5" clip-path="url(#clip0_7_13726)">
<path d="M16.2162 5.21901V14.9085L11.0719 0.89354C10.4616 -0.663789 11.8568 0.287859 11.8568 0.287859L14.8213 2.53725C16.2162 3.57529 16.2162 5.21901 16.2162 5.21901ZM11.0719 28.8373L16.2162 14.9087L1.65502 19.8398C-0.00162107 20.359 1.04471 19.0611 1.04471 19.0611L3.31166 16.2928C4.35799 14.9951 6.10184 14.9951 6.10184 14.9951C6.10184 14.9951 4.35799 14.9951 3.31166 13.6973L1.04471 10.929C1.04471 10.929 -0.00162107 9.63128 1.65502 10.1503L16.2162 15.0817V24.7711C16.2162 24.7711 16.2162 26.4148 14.8212 27.453L11.8566 29.4428C11.8568 29.4428 10.4616 30.3945 11.0719 28.8373Z" fill="#16103E"/>
<path d="M74.2877 15.7734V18.715C73.9389 18.9746 73.0669 19.3205 71.9334 19.3205C70.7126 19.3205 69.9279 18.8014 69.9279 17.6768C69.9279 16.9847 70.1896 16.5521 70.6254 16.2925C71.0613 16.033 71.7588 15.8599 72.5437 15.8599L74.2877 15.7734ZM75.5083 22.9541H79.7807C79.5191 22.0888 79.5191 20.7912 79.5191 19.8396V12.659C79.5191 8.76589 77.4264 6.51663 72.4564 6.51663C69.9278 6.51663 67.7479 7.12217 65.8297 8.07381L67.3991 11.2747C68.5326 10.6692 70.1021 10.3231 71.4972 10.3231C73.2411 10.3231 74.3748 10.9286 74.3748 12.3994V12.5723L71.8461 12.6589C70.1894 12.7454 68.7072 13.005 67.5736 13.6105C65.917 14.4756 64.8707 15.7732 64.8707 18.0228C64.8707 21.1372 67.225 23.3 70.364 23.3C72.3694 23.3 73.7645 22.5213 74.898 21.5698L75.5083 22.9541ZM55.1922 15.1678C53.6227 15.1678 52.9252 13.9568 52.9252 12.7455C52.9252 11.0153 53.8844 10.2366 55.105 10.2366C56.6745 10.2366 57.4593 11.5343 57.4593 12.7455C57.4593 14.3027 56.5001 15.1678 55.1922 15.1678ZM55.541 27.5392C53.0124 27.5392 51.5301 26.5876 51.5301 25.29C51.5301 24.5979 51.8789 24.0788 52.2276 23.8192C53.8842 24.6843 59.0287 24.1653 59.0287 26.0685C59.0287 27.0201 57.372 27.5392 55.541 27.5392ZM54.8435 30.9997C61.0343 30.9997 63.9117 28.4044 63.9117 25.5494C63.9117 19.58 53.2741 22.1753 53.2741 19.4069C53.2741 19.234 53.2741 19.0608 53.4483 18.715C53.8844 18.8879 54.5819 18.8879 55.2795 18.8879C59.3775 18.8879 62.3422 16.552 62.3422 12.8319C62.3422 11.5342 61.9062 10.2366 61.2087 9.2849C61.4703 9.19838 61.9936 9.11199 62.1678 9.11199C62.6039 9.11199 63.127 9.19838 63.563 9.2849L64.5221 5.73789C64.2605 5.73789 63.7373 5.65137 63.3886 5.65137C61.0344 5.65137 59.9881 6.25691 59.1162 7.03564C58.9419 7.20856 58.8546 7.20856 58.6801 7.12217C57.9828 6.68954 56.7619 6.34344 55.2797 6.34344C50.3096 6.34344 48.3041 9.54434 48.3041 12.3994C48.3041 14.4756 49.2633 16.4655 51.1815 17.4171C49.8736 18.1092 49.0018 19.234 49.0018 20.3587C49.0018 21.1373 49.3506 21.9159 50.048 22.3484C48.5658 22.8675 47.1706 24.1653 47.1706 26.0685C46.996 28.9235 49.6992 30.9997 54.8435 30.9997ZM19.6173 22.9541H24.7618V11.9668C25.7209 11.2747 26.8543 10.9286 27.9007 10.9286C29.8189 10.9286 29.9933 12.3129 29.9933 13.8701V22.9541H35.1377V12.3129V11.9668C36.0969 11.2747 37.2303 10.9286 38.1895 10.9286C40.1077 10.9286 40.3693 12.2264 40.3693 13.7837V22.9541H45.5137V12.4858C45.5137 7.98715 42.7236 6.51649 39.759 6.51649C38.1024 6.51649 36.0097 7.20842 34.0915 8.76575C33.2194 7.38147 31.7372 6.51649 29.6445 6.51649C27.7263 6.51649 25.8952 7.46813 24.3258 8.59269L23.9769 6.94898H19.6172V22.9541H19.6173Z" fill="#16103E"/>
</g>
<defs>
<clipPath id="clip0_7_13726">
<rect width="80" height="31" fill="white"/>
</clipPath>
</defs>
</svg>
