<svg width="31" height="30" viewBox="0 0 31 30" fill="none" xmlns="http://www.w3.org/2000/svg">
<g opacity="0.5">
<path d="M28.2757 7.5C27.3132 7.9375 26.2757 8.225 25.2007 8.3625C26.3007 7.7 27.1507 6.65 27.5507 5.3875C26.5132 6.0125 25.3632 6.45 24.1507 6.7C23.1632 5.625 21.7757 5 20.2007 5C17.2632 5 14.8632 7.4 14.8632 10.3625C14.8632 10.7875 14.9132 11.2 15.0007 11.5875C10.5507 11.3625 6.58823 9.225 3.95073 5.9875C3.48823 6.775 3.22573 7.7 3.22573 8.675C3.22573 10.5375 4.16323 12.1875 5.61323 13.125C4.72573 13.125 3.90073 12.875 3.17573 12.5V12.5375C3.17573 15.1375 5.02573 17.3125 7.47573 17.8C6.68914 18.0153 5.86335 18.0452 5.06323 17.8875C5.40274 18.9531 6.06765 19.8855 6.9645 20.5537C7.86135 21.2218 8.94504 21.5921 10.0632 21.6125C8.16777 23.113 5.81823 23.9241 3.40073 23.9125C2.97573 23.9125 2.55073 23.8875 2.12573 23.8375C4.50073 25.3625 7.32573 26.25 10.3507 26.25C20.2007 26.25 25.6132 18.075 25.6132 10.9875C25.6132 10.75 25.6132 10.525 25.6007 10.2875C26.6507 9.5375 27.5507 8.5875 28.2757 7.5Z" fill="#16103E"/>
</g>
</svg>
