<svg width="31" height="30" viewBox="0 0 31 30" fill="none" xmlns="http://www.w3.org/2000/svg">
<g opacity="0.5">
<path d="M28.3772 8.6748C28.2278 8.11828 27.9348 7.61076 27.5276 7.20303C27.1204 6.79531 26.6132 6.5017 26.0569 6.35156C24.009 5.80078 15.8 5.80078 15.8 5.80078C15.8 5.80078 7.59106 5.80078 5.54321 6.34863C4.98663 6.49828 4.47922 6.79173 4.07194 7.19953C3.66466 7.60733 3.37184 8.11511 3.2229 8.67188C2.67505 10.7227 2.67505 15 2.67505 15C2.67505 15 2.67505 19.2773 3.2229 21.3252C3.52466 22.4561 4.41528 23.3467 5.54321 23.6484C7.59106 24.1992 15.8 24.1992 15.8 24.1992C15.8 24.1992 24.009 24.1992 26.0569 23.6484C27.1877 23.3467 28.0754 22.4561 28.3772 21.3252C28.925 19.2773 28.925 15 28.925 15C28.925 15 28.925 10.7227 28.3772 8.6748ZM13.1926 18.9258V11.0742L19.9895 14.9707L13.1926 18.9258Z" fill="#16103E"/>
</g>
</svg>
